<?xml version="1.0" encoding="utf-8"?>
<!-- Generator: Adobe Illustrator 18.0.0, SVG Export Plug-In . SVG Version: 6.00 Build 0)  -->
<!DOCTYPE svg PUBLIC "-//W3C//DTD SVG 1.1//EN" "http://www.w3.org/Graphics/SVG/1.1/DTD/svg11.dtd">
<svg version="1.1" id="Layer_1" xmlns="http://www.w3.org/2000/svg" xmlns:xlink="http://www.w3.org/1999/xlink" x="0px" y="0px"
	 viewBox="0 0 562.7 561.9" enable-background="new 0 0 562.7 561.9" xml:space="preserve">
<polygon fill="#FB2200" points="500.5,460 454.7,486.4 421.5,527.5 369.3,535.6 323.5,561.9 271.9,550.5 219.7,558.6 175.6,529.3 
	124,518 93.6,474.8 49.6,445.6 36.7,394.3 6.3,351.1 12.8,298.7 0,247.4 25.1,200.9 31.6,148.5 71.8,114.2 96.9,67.6 146.7,50.1 
	186.9,15.8 239.7,17.5 289.6,0 338.2,20.7 391,22.4 428.9,59.2 477.5,79.8 499.6,127.9 537.4,164.7 540.6,217.5 562.7,265.5 
	546.6,315.8 549.8,368.6 516.6,409.7 "/>
</svg>
